<svg width="43" height="44" viewBox="0 0 43 44" fill="none" xmlns="http://www.w3.org/2000/svg">
<path d="M29.7865 31.1333C29.7865 32.7833 29.3833 34.3038 28.5771 35.6947C27.7708 37.0856 26.6809 38.1929 25.3073 39.0167L23.6948 39.9792C23.2767 40.2236 22.8515 40.4069 22.4191 40.5292C21.9867 40.6514 21.5311 40.7125 21.0521 40.7125C20.3653 40.7125 19.7161 40.5903 19.1045 40.3458C18.493 40.1014 17.9328 39.7347 17.424 39.2458C16.558 38.4208 16.0432 37.4125 15.8795 36.2208C15.7159 35.0292 15.8873 33.8833 16.3937 32.7833L17.0656 31.3625C17.1851 31.1486 17.2896 30.9427 17.3792 30.7447C17.4688 30.5467 17.5434 30.3248 17.6031 30.0792C17.6628 29.9875 17.6628 29.8958 17.6031 29.8042C17.5434 29.7125 17.4688 29.6361 17.3792 29.575C17.2896 29.5139 17.2 29.5066 17.1104 29.553C17.0208 29.5994 16.9462 29.6679 16.8865 29.7583C16.558 30.4611 16.1477 31.1028 15.6556 31.6833C15.1635 32.2639 14.5883 32.7375 13.9302 33.1042C13.2434 33.5319 12.5118 33.8528 11.7354 34.0667C10.959 34.2806 10.1677 34.3875 9.36146 34.3875C7.74896 34.3875 6.2559 33.9903 4.88229 33.1958C3.50868 32.4014 2.43368 31.2861 1.65729 29.85L0.716667 28.2C0.477778 27.8028 0.298611 27.375 0.179167 26.9167C0.0597223 26.4583 0 26 0 25.5417C0 24.8389 0.127208 24.1819 0.381625 23.5708C0.636042 22.9597 0.986611 22.3944 1.43333 21.875C2.23958 20.9889 3.23276 20.4468 4.41288 20.2488C5.59299 20.0508 6.70501 20.2262 7.74896 20.775L9.1375 21.4625C9.34653 21.5847 9.54839 21.6917 9.74308 21.7833C9.93778 21.875 10.154 21.9514 10.3917 22.0125C10.5111 22.0431 10.6085 22.0278 10.6837 21.9667C10.759 21.9056 10.8258 21.8292 10.8844 21.7375C10.9429 21.6458 10.9507 21.5542 10.9077 21.4625C10.8647 21.3708 10.7972 21.2944 10.7052 21.2333C9.24201 20.5917 8.11446 19.5681 7.32254 18.1625C6.53062 16.7569 6.13526 15.2292 6.13646 13.5792C6.13765 11.9292 6.54078 10.4014 7.34583 8.99583C8.15089 7.59028 9.24082 6.475 10.6156 5.65L12.2281 4.73333C12.6462 4.48889 13.0792 4.30556 13.5271 4.18333C13.975 4.06111 14.4378 4 14.9156 4C15.6024 4 16.2444 4.12222 16.8417 4.36667C17.4389 4.61111 17.9913 4.97778 18.499 5.46667C19.3351 6.32222 19.8427 7.34583 20.0219 8.5375C20.201 9.72917 20.0219 10.8597 19.4844 11.9292L18.8125 13.35C18.7229 13.5639 18.6262 13.7704 18.5222 13.9697C18.4183 14.1689 18.3359 14.3901 18.275 14.6333C18.2451 14.725 18.2601 14.8093 18.3198 14.8863C18.3795 14.9633 18.4542 15.0318 18.5437 15.0917C18.6333 15.1222 18.7229 15.1222 18.8125 15.0917C18.9021 15.0611 18.9767 15 19.0365 14.9083C19.7233 13.4417 20.7463 12.3038 22.1056 11.4947C23.4649 10.6856 24.9352 10.2804 26.5167 10.2792C28.1292 10.2792 29.63 10.6764 31.0191 11.4708C32.4083 12.2653 33.4904 13.3806 34.2656 14.8167L35.1615 16.4667C35.4003 16.8944 35.5723 17.3302 35.6775 17.7738C35.7826 18.2175 35.8345 18.6679 35.8333 19.125C35.8333 19.8278 35.7139 20.4927 35.475 21.1197C35.2361 21.7467 34.8778 22.3193 34.4 22.8375C33.6236 23.7236 32.6454 24.2583 31.4653 24.4417C30.2851 24.625 29.1731 24.4417 28.1292 23.8917L26.7406 23.2042C26.5316 23.1125 26.3303 23.0208 26.1368 22.9292C25.9433 22.8375 25.7265 22.7611 25.4865 22.7C25.3969 22.6389 25.3151 22.6389 25.241 22.7C25.1669 22.7611 25.0995 22.8375 25.0385 22.9292C25.0087 23.0208 25.0087 23.1125 25.0385 23.2042C25.0684 23.2958 25.1281 23.3722 25.2177 23.4333C26.6809 24.1056 27.8085 25.1444 28.6004 26.55C29.3923 27.9556 29.7877 29.4833 29.7865 31.1333ZM21.9031 36.8167L23.5156 35.8542C24.3517 35.3653 25.0087 34.7083 25.4865 33.8833C25.9642 33.0583 26.2031 32.1569 26.2031 31.1792C26.2031 30.2319 25.9792 29.3538 25.5313 28.5447C25.0833 27.7356 24.4563 27.1165 23.65 26.6875C22.6944 26.1681 22.0447 25.3816 21.7007 24.328C21.3567 23.2744 21.4092 22.2429 21.8583 21.2333C22.3361 20.1639 23.1424 19.4843 24.2771 19.1947C25.4118 18.905 26.5316 19.0346 27.6365 19.5833L29.7417 20.6375C30.1 20.7903 30.4733 20.8441 30.8615 20.7988C31.2497 20.7536 31.5781 20.5929 31.8469 20.3167C32.1156 20.0404 32.2799 19.7196 32.3396 19.3542C32.3993 18.9887 32.3247 18.6373 32.1156 18.3L31.175 16.65C30.6674 15.7639 29.9955 15.0691 29.1594 14.5655C28.3233 14.0619 27.4125 13.8096 26.4271 13.8083C25.5313 13.8083 24.7023 14.0528 23.9403 14.5417C23.1782 15.0306 22.5887 15.6875 22.1719 16.5125C21.6941 17.4903 20.9404 18.1472 19.9108 18.4833C18.8812 18.8194 17.8731 18.7583 16.8865 18.3C15.8712 17.8417 15.1921 17.0698 14.8493 15.9845C14.5065 14.8992 14.5883 13.8377 15.0948 12.8L16.3042 10.2792C16.4833 9.94306 16.5431 9.57639 16.4833 9.17917C16.4236 8.78194 16.2594 8.44583 15.9906 8.17083C15.7219 7.89583 15.4012 7.72778 15.0285 7.66667C14.6558 7.60556 14.3047 7.66667 13.975 7.85L12.3625 8.8125C11.5264 9.30139 10.8694 9.97361 10.3917 10.8292C9.91389 11.6847 9.675 12.6014 9.675 13.5792C9.675 14.4958 9.89896 15.3593 10.3469 16.1697C10.7948 16.98 11.4219 17.5984 12.2281 18.025C13.124 18.5444 13.766 19.2778 14.1542 20.225C14.5424 21.1722 14.5424 22.1347 14.1542 23.1125C13.7063 24.2431 12.9149 25.0069 11.7802 25.4042C10.6455 25.8014 9.5257 25.725 8.42083 25.175L6.18125 24.0292C5.82292 23.8458 5.45742 23.7847 5.08475 23.8458C4.71208 23.9069 4.37585 24.0903 4.07604 24.3958C3.80729 24.6708 3.64306 24.9917 3.58333 25.3583C3.52361 25.725 3.59826 26.0764 3.80729 26.4125L4.74792 28.0625C5.22569 28.9181 5.87547 29.5829 6.69725 30.0572C7.51903 30.5314 8.4071 30.7679 9.36146 30.7667C9.83924 30.7667 10.3021 30.7056 10.75 30.5833C11.1979 30.4611 11.6309 30.2778 12.049 30.0333C12.4073 29.8194 12.7208 29.5524 12.9896 29.2322C13.2583 28.9119 13.4972 28.5679 13.7063 28.2C14.2736 27.1917 15.0799 26.4968 16.125 26.1155C17.1701 25.7342 18.1705 25.8332 19.126 26.4125C20.0816 26.9918 20.7236 27.8016 21.0521 28.8417C21.3806 29.8818 21.3059 30.8901 20.8281 31.8667L19.6187 34.3875C19.4694 34.7542 19.4169 35.1361 19.4611 35.5333C19.5053 35.9306 19.6623 36.2667 19.9323 36.5417C20.2022 36.8167 20.5158 36.9847 20.8729 37.0458C21.2301 37.1069 21.5735 37.0306 21.9031 36.8167ZM23.5156 35.8542L21.9031 36.8167C21.5747 37 21.2313 37.0691 20.8729 37.0238C20.5146 36.9786 20.201 36.8179 19.9323 36.5417C19.6635 36.2654 19.4993 35.9293 19.4396 35.5333C19.3799 35.1373 19.4396 34.7554 19.6187 34.3875L20.8281 31.8667C21.3059 30.8901 21.3806 29.8818 21.0521 28.8417C20.7236 27.8016 20.0816 26.9918 19.126 26.4125C18.1705 25.8319 17.163 25.7323 16.1035 26.1137C15.044 26.495 14.2449 27.1904 13.7063 28.2C13.4972 28.5679 13.2583 28.9119 12.9896 29.2322C12.7208 29.5524 12.4073 29.8194 12.049 30.0333C11.6309 30.2778 11.1979 30.4611 10.75 30.5833C10.3021 30.7056 9.83924 30.7667 9.36146 30.7667C8.4071 30.7679 7.51903 30.5314 6.69725 30.0572C5.87547 29.5829 5.22569 28.9181 4.74792 28.0625L3.80729 26.4125C3.62813 26.0764 3.56124 25.725 3.60663 25.3583C3.65201 24.9917 3.80849 24.6708 4.07604 24.3958C4.37585 24.0903 4.71208 23.9069 5.08475 23.8458C5.45742 23.7847 5.82292 23.8458 6.18125 24.0292L8.42083 25.175C9.5257 25.725 10.6455 25.8014 11.7802 25.4042C12.9149 25.0069 13.7063 24.2431 14.1542 23.1125C14.5424 22.1347 14.5424 21.1643 14.1542 20.2012C13.766 19.2381 13.124 18.5127 12.2281 18.025C11.4219 17.5984 10.7948 16.98 10.3469 16.1697C9.89896 15.3593 9.675 14.4958 9.675 13.5792C9.675 12.6014 9.91389 11.6927 10.3917 10.853C10.8694 10.0133 11.5264 9.33317 12.3625 8.8125L13.975 7.85C14.3047 7.66667 14.6558 7.60556 15.0285 7.66667C15.4012 7.72778 15.7219 7.89583 15.9906 8.17083C16.2594 8.44583 16.4236 8.78194 16.4833 9.17917C16.5431 9.57639 16.4833 9.94306 16.3042 10.2792L15.0948 12.8C14.5872 13.8389 14.5053 14.901 14.8493 15.9863C15.1933 17.0717 15.8724 17.8429 16.8865 18.3C17.8731 18.7583 18.8812 18.8194 19.9108 18.4833C20.9404 18.1472 21.6941 17.4903 22.1719 16.5125C22.5601 15.6875 23.1424 15.0306 23.9188 14.5417C24.6951 14.0528 25.5313 13.8083 26.4271 13.8083C27.4125 13.8096 28.3233 14.0619 29.1594 14.5655C29.9955 15.0691 30.6674 15.7639 31.175 16.65L32.1156 18.3C32.2948 18.6361 32.3623 18.9875 32.3181 19.3542C32.2739 19.7208 32.1168 20.0417 31.8469 20.3167C31.5769 20.5917 31.2485 20.7597 30.8615 20.8208C30.4745 20.8819 30.1012 20.8208 29.7417 20.6375L27.6365 19.5833C26.5316 19.0346 25.4118 18.905 24.2771 19.1947C23.1424 19.4843 22.3361 20.1639 21.8583 21.2333C21.4092 22.2429 21.3567 23.2744 21.7007 24.328C22.0447 25.3816 22.6944 26.1681 23.65 26.6875C24.4563 27.1165 25.0833 27.7356 25.5313 28.5447C25.9792 29.3538 26.2031 30.2319 26.2031 31.1792C26.2031 32.1569 25.9642 33.0583 25.4865 33.8833C25.0087 34.7083 24.3517 35.3653 23.5156 35.8542Z" fill="#00CBCB"/>
</svg>
