<svg width="47" height="47" viewBox="0 0 47 47" fill="none" xmlns="http://www.w3.org/2000/svg">
<path d="M23.0013 42.1735C21.9471 42.1732 21.0451 41.7979 20.2953 41.0476C19.5455 40.2973 19.1701 39.3945 19.1691 38.339L26.8358 38.3413C26.8355 39.3955 26.4602 40.2981 25.7099 41.0492C24.9596 41.8003 24.0567 42.1751 23.0013 42.1735ZM15.3363 36.4212L15.3375 32.5879L30.6708 32.5924L30.6697 36.4258L15.3363 36.4212ZM15.8172 30.6714C13.6134 29.361 11.8647 27.6035 10.571 25.399C9.27722 23.1944 8.63138 20.7984 8.63343 18.2109C8.63461 14.2178 10.0335 10.8245 12.8301 8.03081C15.6267 5.23714 19.0209 3.84026 23.0127 3.84017C27.0045 3.84008 30.3985 5.23898 33.1947 8.03687C35.9909 10.8348 37.3872 14.2289 37.3834 18.2194C37.3827 20.8069 36.7354 23.2026 35.4416 25.4064C34.1479 27.6101 32.3981 29.3666 30.1922 30.6756L15.8172 30.6714Z" fill="#9B59B6"/>
</svg>
