<svg width="46" height="46" viewBox="0 0 46 46" fill="none" xmlns="http://www.w3.org/2000/svg">
<path d="M23 3.83334C24.0542 3.83334 24.9563 4.20836 25.7063 4.95842C26.4564 5.70848 26.8321 6.61122 26.8333 7.66667L19.1667 7.66667C19.1667 6.6125 19.5417 5.70975 20.2917 4.95842C21.0418 4.20708 21.9446 3.83206 23 3.83334ZM30.6667 9.58334L30.6667 13.4167L15.3333 13.4167L15.3333 9.58334L30.6667 9.58334ZM30.1875 15.3333C32.3917 16.6431 34.1409 18.4 35.4353 20.6042C36.7297 22.8083 37.3763 25.2042 37.375 27.7917C37.375 31.7847 35.9771 35.1785 33.1813 37.973C30.3856 40.7675 26.9918 42.1654 23 42.1667C19.0082 42.1679 15.6138 40.7701 12.8167 37.973C10.0197 35.1759 8.62244 31.7822 8.62499 27.7917C8.62499 25.2042 9.27155 22.8083 10.5647 20.6042C11.8578 18.4 13.607 16.6431 15.8125 15.3333L30.1875 15.3333Z" fill="#F1C40F"/>
</svg>
