<svg width="41" height="41" viewBox="0 0 41 41" fill="none" xmlns="http://www.w3.org/2000/svg">
<path d="M20.4998 37.5833C18.1366 37.5833 15.9158 37.1346 13.8373 36.2372C11.7589 35.3397 9.95088 34.1228 8.41338 32.5864C6.87588 31.0501 5.65898 29.2421 4.76267 27.1625C3.86637 25.0829 3.41764 22.862 3.41651 20.5C3.41537 18.1379 3.86409 15.9171 4.76267 13.8375C5.66126 11.7579 6.87816 9.94989 8.41338 8.41353C9.9486 6.87717 11.7566 5.66027 13.8373 4.76282C15.9181 3.86538 18.1389 3.41666 20.4998 3.41666C22.8608 3.41666 25.0816 3.86538 27.1623 4.76282C29.2431 5.66027 31.0511 6.87717 32.5863 8.41353C34.1215 9.94989 35.339 11.7579 36.2387 13.8375C37.1384 15.9171 37.5866 18.1379 37.5832 20.5C37.5798 22.862 37.131 25.0829 36.237 27.1625C35.343 29.2421 34.1261 31.0501 32.5863 32.5864C31.0465 34.1228 29.2385 35.3403 27.1623 36.2389C25.0861 37.1374 22.8653 37.5856 20.4998 37.5833ZM20.4998 30.75C23.3471 30.75 25.7672 29.7535 27.7603 27.7604C29.7533 25.7673 30.7498 23.3472 30.7498 20.5C30.7498 19.5035 30.6217 18.557 30.3655 17.6607C30.1092 16.7644 29.7391 15.9171 29.255 15.1187C28.9134 14.5493 28.5079 14.2293 28.0387 14.1587C27.5695 14.088 27.135 14.1661 26.7353 14.3927C26.3355 14.6193 26.0576 14.9468 25.9016 15.375C25.7456 15.8032 25.8241 16.2303 26.1373 16.6562C26.536 17.1972 26.8349 17.7951 27.0342 18.45C27.2335 19.1049 27.3332 19.7882 27.3332 20.5C27.3332 22.3792 26.6641 23.9878 25.3259 25.326C23.9877 26.6642 22.379 27.3333 20.4998 27.3333C18.6207 27.3333 17.012 26.6642 15.6738 25.326C14.3356 23.9878 13.6665 22.3792 13.6665 20.5C13.6665 19.7882 13.7662 19.1123 13.9655 18.4722C14.1648 17.8321 14.4495 17.2411 14.8196 16.6989C15.1044 16.2719 15.1755 15.8522 15.0332 15.4399C14.8908 15.0276 14.6346 14.707 14.2644 14.4781C13.8943 14.2492 13.4746 14.1638 13.0054 14.2219C12.5362 14.2799 12.1159 14.5789 11.7446 15.1187C11.2321 15.8875 10.8546 16.7274 10.612 17.6385C10.3694 18.5496 10.2487 19.5035 10.2498 20.5C10.2498 23.3472 11.2464 25.7673 13.2394 27.7604C15.2325 29.7535 17.6526 30.75 20.4998 30.75ZM20.4998 10.25C20.0158 10.25 19.6104 10.414 19.2835 10.742C18.9566 11.07 18.7926 11.4754 18.7915 11.9583V18.7917C18.7915 19.2757 18.9555 19.6817 19.2835 20.0097C19.6115 20.3377 20.017 20.5011 20.4998 20.5C20.9827 20.4988 21.3887 20.3349 21.7179 20.008C22.047 19.6811 22.2105 19.2757 22.2082 18.7917V11.9583C22.2082 11.4743 22.0442 11.0689 21.7162 10.742C21.3882 10.4151 20.9827 10.2511 20.4998 10.25Z" fill="#7F888B"/>
</svg>
