<svg width="41" height="40" viewBox="0 0 41 40" fill="none" xmlns="http://www.w3.org/2000/svg">
<path d="M15.3748 26.3334H18.7915V12.6667H15.3748V26.3334ZM22.2082 26.3334H25.6248V12.6667H22.2082V26.3334ZM20.4998 36.5834C18.1366 36.5834 15.9158 36.1346 13.8373 35.2372C11.7589 34.3397 9.95088 33.1228 8.41338 31.5865C6.87588 30.0501 5.65898 28.2421 4.76267 26.1625C3.86637 24.0829 3.41764 21.8621 3.41651 19.5C3.41537 17.138 3.86409 14.9171 4.76267 12.8375C5.66126 10.7579 6.87816 8.94992 8.41338 7.41356C9.9486 5.8772 11.7566 4.6603 13.8373 3.76285C15.9181 2.86541 18.1389 2.41669 20.4998 2.41669C22.8608 2.41669 25.0816 2.86541 27.1623 3.76285C29.2431 4.6603 31.0511 5.8772 32.5863 7.41356C34.1215 8.94992 35.339 10.7579 36.2387 12.8375C37.1384 14.9171 37.5866 17.138 37.5832 19.5C37.5798 21.8621 37.131 24.0829 36.237 26.1625C35.343 28.2421 34.1261 30.0501 32.5863 31.5865C31.0465 33.1228 29.2385 34.3403 27.1623 35.2389C25.0861 36.1375 22.8653 36.5856 20.4998 36.5834Z" fill="#F1C40F"/>
</svg>
