<svg width="36" height="36" viewBox="0 0 36 36" fill="none" xmlns="http://www.w3.org/2000/svg">
<path opacity="0.25" d="M18 1.5C14.7366 1.5 11.5465 2.46771 8.8331 4.28075C6.11969 6.09379 4.00484 8.67074 2.756 11.6857C1.50715 14.7007 1.18039 18.0183 1.81705 21.219C2.45371 24.4197 4.02518 27.3597 6.33275 29.6673C8.64031 31.9748 11.5803 33.5463 14.781 34.183C17.9817 34.8196 21.2993 34.4929 24.3143 33.244C27.3293 31.9952 29.9062 29.8803 31.7193 27.1669C33.5323 24.4535 34.5 21.2634 34.5 18C34.5 13.6239 32.7616 9.42709 29.6673 6.33274C26.5729 3.23839 22.3761 1.5 18 1.5ZM18 30C15.6266 30 13.3066 29.2962 11.3332 27.9776C9.35977 26.6591 7.8217 24.7849 6.91345 22.5922C6.0052 20.3995 5.76756 17.9867 6.23058 15.6589C6.69361 13.3311 7.8365 11.1929 9.51473 9.51472C11.193 7.83649 13.3312 6.6936 15.6589 6.23058C17.9867 5.76755 20.3995 6.00519 22.5922 6.91345C24.7849 7.8217 26.6591 9.35977 27.9776 11.3332C29.2962 13.3065 30 15.6266 30 18C30 21.1826 28.7357 24.2348 26.4853 26.4853C24.2349 28.7357 21.1826 30 18 30Z" fill="#7F888B"/>
<path d="M16.0801 29.85C14.4456 29.5865 12.8833 28.9877 11.4915 28.0912C10.0996 27.1946 8.90834 26.0197 7.99258 24.6405C7.07681 23.2612 6.45637 21.7073 6.17026 20.0766C5.88416 18.4459 5.93859 16.7737 6.33013 15.165C6.8285 12.9316 7.97329 10.8943 9.62176 9.30721C11.2702 7.72009 13.3494 6.65335 15.6001 6.24001C17.1795 5.91774 18.8076 5.91698 20.3873 6.23777C21.967 6.55856 23.4659 7.19432 24.7945 8.10711C26.1231 9.0199 27.2541 10.191 28.1202 11.5505C28.9862 12.9101 29.5695 14.4301 29.8351 16.02C29.9131 16.5612 30.1805 17.0571 30.5897 17.4197C30.999 17.7822 31.5235 17.9878 32.0701 18H32.2651C32.5591 18.0044 32.8506 17.9457 33.12 17.8278C33.3893 17.7099 33.6303 17.5356 33.8265 17.3167C34.0227 17.0977 34.1696 16.8392 34.2574 16.5586C34.3451 16.2779 34.3716 15.9818 34.3351 15.69C33.9084 12.671 32.6534 9.82935 30.7096 7.48032C28.7658 5.13129 26.2092 3.36679 23.3234 2.38264C20.4376 1.3985 17.3355 1.23321 14.3615 1.9051C11.3875 2.577 8.65776 4.05981 6.47533 6.18897C4.2929 8.31813 2.7431 11.0104 1.99793 13.9669C1.25276 16.9234 1.34136 20.0286 2.2539 22.9378C3.16644 25.8471 4.86724 28.4465 7.16752 30.4478C9.46781 32.449 12.2776 33.7738 15.2851 34.275C15.6168 34.3341 15.9573 34.3199 16.2829 34.2334C16.6085 34.147 16.9113 33.9904 17.1699 33.7746C17.4286 33.5588 17.637 33.289 17.7804 32.9842C17.9238 32.6794 17.9988 32.3469 18.0001 32.01C17.9937 31.4791 17.796 30.9684 17.4433 30.5716C17.0906 30.1748 16.6066 29.9186 16.0801 29.85Z" fill="#7F888B"/>
</svg>
